<?xml version="1.0" encoding="utf-8"?>
<!-- Generator: Adobe Illustrator 16.0.0, SVG Export Plug-In . SVG Version: 6.00 Build 0)  -->
<!DOCTYPE svg PUBLIC "-//W3C//DTD SVG 1.1//EN" "http://www.w3.org/Graphics/SVG/1.1/DTD/svg11.dtd">
<svg version="1.1" xmlns="http://www.w3.org/2000/svg" xmlns:xlink="http://www.w3.org/1999/xlink" x="0px" y="0px" width="416px"
	 height="111.5px" viewBox="0 0 416 111.5" enable-background="new 0 0 416 111.5" xml:space="preserve">
<g id="Info">
</g>
<g id="Logo">
	<g>
		<g>
			<g>
				<path fill="#8B9B92" d="M297.081,93.49h-3.186v5.509h-2.127V84.992h5.312c2.736,0,4.484,1.811,4.484,4.25
					C301.565,91.681,299.817,93.49,297.081,93.49z M296.964,86.901h-3.068v4.661h3.068c1.475,0,2.479-0.846,2.479-2.321
					C299.442,87.766,298.438,86.901,296.964,86.901z"/>
				<path fill="#8B9B92" d="M304.021,98.999V84.992h2.125v12.097h6.746v1.91H304.021z"/>
				<path fill="#8B9B92" d="M319.233,99.115c-2.85,0-5.014-1.948-5.014-4.839v-9.284h2.123v9.186c0,1.868,1.141,3.03,2.891,3.03
					c1.754,0,2.912-1.162,2.912-3.03v-9.186h2.123v9.284C324.269,97.167,322.087,99.115,319.233,99.115z"/>
				<path fill="#8B9B92" d="M336.757,97.521c-1.062,1.122-2.379,1.594-3.855,1.594c-1.455,0-2.715-0.53-3.678-1.495
					c-1.377-1.377-1.359-2.93-1.359-5.625c0-2.695-0.018-4.248,1.359-5.625c0.963-0.963,2.184-1.495,3.678-1.495
					c2.971,0,4.703,1.947,5.094,4.348h-2.143c-0.354-1.536-1.377-2.44-2.951-2.44c-0.826,0-1.572,0.334-2.066,0.866
					c-0.686,0.747-0.844,1.535-0.844,4.346c0,2.813,0.158,3.619,0.844,4.367c0.494,0.53,1.24,0.846,2.066,0.846
					c0.926,0,1.732-0.354,2.283-0.983c0.51-0.591,0.709-1.299,0.709-2.204v-0.786h-2.992v-1.81h5.115v2.143
					C338.017,95.377,337.683,96.538,336.757,97.521z"/>
				<path fill="#8B9B92" d="M350.19,97.521c-1.064,1.122-2.383,1.594-3.857,1.594c-1.455,0-2.713-0.53-3.678-1.495
					c-1.377-1.377-1.359-2.93-1.359-5.625c0-2.695-0.018-4.248,1.359-5.625c0.965-0.963,2.182-1.495,3.678-1.495
					c2.971,0,4.701,1.947,5.096,4.348h-2.145c-0.354-1.536-1.379-2.44-2.951-2.44c-0.826,0-1.574,0.334-2.066,0.866
					c-0.688,0.747-0.844,1.535-0.844,4.346c0,2.813,0.156,3.619,0.844,4.367c0.492,0.53,1.24,0.846,2.066,0.846
					c0.924,0,1.73-0.354,2.281-0.983c0.512-0.591,0.709-1.299,0.709-2.204v-0.786h-2.99v-1.81h5.115v2.143
					C351.448,95.377,351.112,96.538,350.19,97.521z"/>
				<path fill="#8B9B92" d="M355.241,98.999V84.992h8.947v1.909h-6.826v4.091h5.822v1.89h-5.822v4.207h6.826v1.91H355.241z"/>
				<path fill="#8B9B92" d="M376.302,97.678c-0.885,0.885-2.164,1.32-3.617,1.32h-4.92V84.992h4.92c1.453,0,2.732,0.433,3.617,1.319
					c1.516,1.515,1.418,3.56,1.418,5.585C377.72,93.922,377.817,96.165,376.302,97.678z M374.847,87.845
					c-0.592-0.649-1.377-0.944-2.381-0.944h-2.576v10.188h2.576c1.004,0,1.789-0.295,2.381-0.942
					c0.729-0.808,0.746-2.323,0.746-4.25S375.575,88.651,374.847,87.845z"/>
				<path fill="#8B9B92" d="M386.009,98.999V84.992h2.123v14.007H386.009z"/>
				<path fill="#8B9B92" d="M401.481,98.999l-6.473-9.855v9.855h-2.123V84.992h1.947l6.471,9.835v-9.835h2.125v14.007H401.481z"/>
			</g>
		</g>
		<g>
			<g>
				<path fill="#F05323" d="M50.653,67.934c-5.691,7.342-12.52,10.033-21.518,10.033c-15.205,0-24.514-11.381-24.514-25.443
					c0-14.998,10.549-25.446,24.826-25.446c13.65,0,22.959,9.311,22.959,25.341v2.586H13.311
					c0.619,8.378,7.033,15.514,15.824,15.514c6.93,0,11.584-2.48,15.41-7.343L50.653,67.934z M43.717,48.179
					c-0.311-8.173-5.688-13.654-14.582-13.654c-8.893,0-14.789,5.481-15.824,13.654H43.717z"/>
				<path fill="#F05323" d="M67.506,39.799c0-4.447-0.412-8.274-0.412-11.48h7.652c0,2.588,0.207,5.275,0.207,7.964h0.209
					c2.168-4.758,8.172-9.205,16.135-9.205c12.721,0,18.41,8.066,18.41,19.756v29.891h-8.068V47.661
					c0-8.067-3.514-13.136-11.066-13.136c-10.447,0-14.996,7.549-14.996,18.618v23.581h-8.07V39.799z"/>
				<path fill="#F05323" d="M170.836,67.934c-5.691,7.342-12.516,10.033-21.516,10.033c-15.203,0-24.512-11.381-24.512-25.443
					c0-14.998,10.549-25.446,24.824-25.446c13.652,0,22.963,9.311,22.963,25.341v2.586h-39.102
					c0.623,8.378,7.035,15.514,15.826,15.514c6.93,0,11.586-2.48,15.41-7.343L170.836,67.934z M163.905,48.179
					c-0.311-8.173-5.689-13.654-14.584-13.654s-14.791,5.481-15.826,13.654H163.905z"/>
				<path fill="#F05323" d="M187.692,39.799c0-4.447-0.414-8.274-0.414-11.48h7.655c0,2.588,0.209,5.275,0.209,7.964h0.205
					c2.172-4.758,8.174-9.205,16.138-9.205c1.031,0,2.17,0.104,3.309,0.518l-0.52,8.173c-1.344-0.416-2.893-0.624-4.342-0.624
					c-9.826,0-14.171,6.93-14.171,17.999v23.581h-8.069V39.799z"/>
				<g>
					<rect x="291.353" y="55.271" fill="#F05323" width="8.068" height="21.453"/>
					<path fill="#F05323" d="M295.382,6.125c2.867,0,5.105,2.325,5.105,5.099c0,2.951-2.15,5.1-5.105,5.1
						c-2.951,0-5.098-2.148-5.098-5.1C290.284,8.451,292.524,6.125,295.382,6.125"/>
					<rect x="291.353" y="28.32" fill="#F05323" width="8.068" height="15.277"/>
				</g>
				<g>
					<path fill="#F05323" d="M247.806,69.899c-9.414,0-17.066-7.552-17.066-17.378c0-10.137,6.932-17.996,17.066-17.996
						c7.039,0,12.545,3.486,15.305,9.054h10.033V28.317h-8.064v8.274h-0.207c-3.209-6.413-10.551-9.515-17.066-9.515
						c-15.412,0-25.754,9.62-25.754,25.444c0,14.275,10.549,24.821,25.754,24.821c6.41,0,13.236-2.79,17.066-8.996h0.207v6.206
						c0,10.238-3.828,19.548-18.309,19.548c-7.445,0-12.928-2.897-17.998-8.378l-5.791,6.619c6.826,6.725,14.375,9.209,23.789,9.209
						c16.963,0,26.373-9.519,26.373-26.998l0.006-19.28h-8.293C263.679,63.306,257.683,69.899,247.806,69.899z"/>
				</g>
			</g>
		</g>
	</g>
	<g>
		<path fill="#8B9B92" d="M374.829,55.266v21.456h7.346V55.272h8.625l10.738,21.449h8.578l-11.533-22.168
			c6.291-1.757,10.098-6.617,10.098-12.761c0-7.744-6.045-13.475-15.512-13.475h-18.34v15.321h7.346V34.36h10.59
			c5.123,0,8.57,2.78,8.57,7.432c0,4.696-3.447,7.372-8.57,7.372h-10.59l-12.23-0.001c-1.387,2.569-3.518,4.655-6.227,6.108
			L374.829,55.266z"/>
		<path fill="#8B9B92" d="M352.288,28.317h-18.34v15.321h7.346V34.36h10.59c5.127,0,8.57,2.78,8.57,7.432
			c0,4.697-3.443,7.372-8.57,7.372h-10.59h-3.41v-0.001h-82.293c-1.219-3.123-4.254-5.338-7.809-5.338
			c-4.629,0-8.385,3.753-8.385,8.386c0,4.634,3.756,8.387,8.385,8.387c3.553,0,6.58-2.21,7.805-5.327h78.361v21.45h7.346V55.272
			h10.994c9.467,0,15.512-5.729,15.512-13.48C367.8,34.048,361.755,28.317,352.288,28.317z"/>
	</g>
</g>
</svg>
