<?xml version="1.0" encoding="utf-8"?>
<!-- Generator: Adobe Illustrator 16.0.0, SVG Export Plug-In . SVG Version: 6.00 Build 0)  -->
<!DOCTYPE svg PUBLIC "-//W3C//DTD SVG 1.1//EN" "http://www.w3.org/Graphics/SVG/1.1/DTD/svg11.dtd">
<svg version="1.1" xmlns="http://www.w3.org/2000/svg" xmlns:xlink="http://www.w3.org/1999/xlink" x="0px" y="0px" width="416px"
	 height="111.5px" viewBox="0 0 416 111.5" enable-background="new 0 0 416 111.5" xml:space="preserve">
<g id="Info">
</g>
<g id="Logo">
	<g>
		<g>
			<path fill="#F05323" d="M50.653,67.934c-5.691,7.342-12.52,10.033-21.518,10.033c-15.205,0-24.514-11.381-24.514-25.443
				c0-14.998,10.549-25.446,24.826-25.446c13.65,0,22.959,9.311,22.959,25.341v2.586H13.311c0.619,8.378,7.033,15.514,15.824,15.514
				c6.93,0,11.584-2.48,15.41-7.343L50.653,67.934z M43.717,48.179c-0.311-8.173-5.688-13.654-14.582-13.654
				c-8.893,0-14.789,5.481-15.824,13.654H43.717z"/>
			<path fill="#F05323" d="M67.506,39.799c0-4.447-0.412-8.274-0.412-11.48h7.652c0,2.588,0.207,5.275,0.207,7.964h0.209
				c2.168-4.758,8.172-9.205,16.135-9.205c12.721,0,18.41,8.066,18.41,19.756v29.891h-8.068V47.661
				c0-8.067-3.514-13.136-11.066-13.136c-10.447,0-14.996,7.549-14.996,18.618v23.581h-8.07V39.799z"/>
			<path fill="#F05323" d="M170.836,67.934c-5.691,7.342-12.516,10.033-21.516,10.033c-15.203,0-24.512-11.381-24.512-25.443
				c0-14.998,10.549-25.446,24.824-25.446c13.652,0,22.963,9.311,22.963,25.341v2.586h-39.102
				c0.623,8.378,7.035,15.514,15.826,15.514c6.93,0,11.586-2.48,15.41-7.343L170.836,67.934z M163.905,48.179
				c-0.311-8.173-5.689-13.654-14.584-13.654s-14.791,5.481-15.826,13.654H163.905z"/>
			<path fill="#F05323" d="M187.692,39.799c0-4.447-0.414-8.274-0.414-11.48h7.655c0,2.588,0.209,5.275,0.209,7.964h0.205
				c2.172-4.758,8.174-9.205,16.138-9.205c1.031,0,2.17,0.104,3.309,0.518l-0.52,8.173c-1.344-0.416-2.893-0.624-4.342-0.624
				c-9.826,0-14.171,6.93-14.171,17.999v23.581h-8.069V39.799z"/>
			<g>
				<rect x="291.353" y="55.271" fill="#F05323" width="8.068" height="21.453"/>
				<path fill="#F05323" d="M295.382,6.125c2.867,0,5.105,2.325,5.105,5.099c0,2.951-2.15,5.1-5.105,5.1
					c-2.951,0-5.098-2.148-5.098-5.1C290.284,8.451,292.524,6.125,295.382,6.125"/>
				<rect x="291.353" y="28.32" fill="#F05323" width="8.068" height="15.277"/>
			</g>
			<g>
				<path fill="#F05323" d="M247.806,69.899c-9.414,0-17.066-7.552-17.066-17.378c0-10.137,6.932-17.996,17.066-17.996
					c7.039,0,12.545,3.486,15.305,9.054h10.033V28.317h-8.064v8.274h-0.207c-3.209-6.413-10.551-9.515-17.066-9.515
					c-15.412,0-25.754,9.62-25.754,25.444c0,14.275,10.549,24.821,25.754,24.821c6.41,0,13.236-2.79,17.066-8.996h0.207v6.206
					c0,10.238-3.828,19.548-18.309,19.548c-7.445,0-12.928-2.897-17.998-8.378l-5.791,6.619c6.826,6.725,14.375,9.209,23.789,9.209
					c16.963,0,26.373-9.519,26.373-26.998l0.006-19.28h-8.293C263.679,63.306,257.683,69.899,247.806,69.899z"/>
			</g>
		</g>
	</g>
	<g>
		<path fill="#8B9B92" d="M333.954,55.266v21.456h7.346V55.272h8.625l10.738,21.449h8.578l-11.533-22.168
			c6.291-1.757,10.098-6.617,10.098-12.761c0-7.744-6.045-13.475-15.512-13.475h-18.34v15.321h7.346V34.36h10.59
			c5.123,0,8.57,2.78,8.57,7.432c0,4.696-3.447,7.372-8.57,7.372H341.3l-12.23-0.001c-1.387,2.569-3.518,4.655-6.227,6.108
			L333.954,55.266z"/>
		<path fill="#8B9B92" d="M352.288,28.317h-18.34v15.321h7.346V34.36h10.59c5.127,0,8.57,2.78,8.57,7.432
			c0,4.697-3.443,7.372-8.57,7.372h-10.59h-3.41v-0.001h-82.293c-1.219-3.123-4.254-5.338-7.809-5.338
			c-4.629,0-8.385,3.753-8.385,8.386c0,4.634,3.756,8.387,8.385,8.387c3.553,0,6.58-2.21,7.805-5.327h78.361v21.45h7.346V55.272
			h10.994c9.467,0,15.512-5.729,15.512-13.48C367.8,34.048,361.755,28.317,352.288,28.317z"/>
		<path fill="#8B9B92" d="M374.799,55.271v21.45h7.346V55.272h10.994c9.467,0,15.512-5.729,15.512-13.48
			c0-7.744-6.045-13.475-15.512-13.475h-18.34v15.321h7.346V34.36h10.59c5.127,0,8.57,2.78,8.57,7.432
			c0,4.697-3.443,7.372-8.57,7.372h-10.59c0,0-7.346,0-7.347,0l-4.884,0c-1.387,2.569-3.518,4.655-6.227,6.108l11.111-0.006"/>
	</g>
	<g>
		<path fill="#8B9B92" d="M297.433,98.972h-5.664V84.966h5.447c2.598,0,4.229,1.475,4.229,3.836c0,1.514-0.943,2.596-1.887,2.971
			c1.082,0.432,2.105,1.475,2.105,3.244C301.663,97.595,299.909,98.972,297.433,98.972z M297.04,86.874h-3.148v4.012h3.148
			c1.355,0,2.281-0.707,2.281-2.006C299.321,87.583,298.396,86.874,297.04,86.874z M297.233,92.796h-3.342v4.268h3.342
			c1.479,0,2.303-0.904,2.303-2.145S298.712,92.796,297.233,92.796z"/>
		<path fill="#8B9B92" d="M314.253,98.972l-2.949-5.9h-2.656v5.9h-2.123V84.966h5.428c2.656,0,4.348,1.713,4.348,4.092
			c0,2.006-1.221,3.285-2.793,3.717l3.227,6.197H314.253z M311.796,86.874h-3.148v4.385h3.148c1.414,0,2.379-0.803,2.379-2.182
			C314.175,87.7,313.21,86.874,311.796,86.874z"/>
		<path fill="#8B9B92" d="M329.165,98.972l-0.963-2.812h-5.527l-0.965,2.812h-2.262l5.135-14.006h1.713l5.131,14.006H329.165z
			 M325.487,88.134l-2.184,6.215h4.309L325.487,88.134z"/>
		<path fill="#8B9B92" d="M343.728,98.972l-6.471-9.854v9.854h-2.127V84.966h1.949l6.471,9.836v-9.836h2.123v14.006H343.728z"/>
		<path fill="#8B9B92" d="M356.29,99.091c-1.455,0-2.715-0.531-3.68-1.496c-1.375-1.377-1.355-2.932-1.355-5.627
			s-0.02-4.248,1.355-5.625c0.965-0.965,2.225-1.496,3.68-1.496c2.578,0,4.504,1.516,4.998,4.309h-2.164
			c-0.336-1.416-1.279-2.4-2.834-2.4c-0.824,0-1.572,0.316-2.064,0.848c-0.689,0.746-0.846,1.553-0.846,4.365
			c0,2.814,0.156,3.621,0.846,4.367c0.492,0.531,1.24,0.846,2.064,0.846c1.555,0,2.518-0.984,2.852-2.398h2.146
			C360.815,97.575,358.829,99.091,356.29,99.091z"/>
		<path fill="#8B9B92" d="M373.642,98.972v-6.119h-5.684v6.119h-2.123V84.966h2.123v5.98h5.684v-5.98h2.127v14.006H373.642z"/>
		<path fill="#8B9B92" d="M381.896,98.972V84.966h8.949v1.908h-6.826v4.09h5.822v1.889h-5.822v4.211h6.826v1.908H381.896z
			 M386.675,83.608h-1.516l1.475-3.188h2.225L386.675,83.608z"/>
		<path fill="#8B9B92" d="M399.187,99.091c-2.104,0-3.617-0.494-4.955-1.85l1.416-1.398c1.021,1.023,2.145,1.338,3.58,1.338
			c1.828,0,2.891-0.785,2.891-2.145c0-0.607-0.176-1.121-0.551-1.455c-0.352-0.334-0.707-0.471-1.533-0.59l-1.654-0.236
			c-1.139-0.158-2.043-0.551-2.654-1.119c-0.689-0.652-1.021-1.535-1.021-2.678c0-2.438,1.768-4.111,4.682-4.111
			c1.848,0,3.146,0.473,4.348,1.594l-1.359,1.338c-0.865-0.826-1.867-1.082-3.049-1.082c-1.65,0-2.557,0.943-2.557,2.184
			c0,0.512,0.156,0.965,0.529,1.299c0.355,0.314,0.926,0.551,1.576,0.65l1.594,0.234c1.297,0.195,2.023,0.512,2.615,1.043
			c0.768,0.668,1.139,1.672,1.139,2.873C404.222,97.554,402.118,99.091,399.187,99.091z"/>
	</g>
</g>
</svg>
